<?xml version="1.0" standalone="no"?><!DOCTYPE svg PUBLIC "-//W3C//DTD SVG 1.1//EN" "http://www.w3.org/Graphics/SVG/1.1/DTD/svg11.dtd"><svg t="1641691163167" class="icon" viewBox="0 0 1024 1024" version="1.1" xmlns="http://www.w3.org/2000/svg" p-id="1536" xmlns:xlink="http://www.w3.org/1999/xlink" width="200" height="200"><defs><style type="text/css"></style></defs><path d="M512 512m-128 0a128 128 0 1 0 256 0 128 128 0 1 0-256 0Z" fill="#d4237a" p-id="1537"></path><path d="M484.8 731.2L379.2 912a32 32 0 0 0 28.8 48h208a32 32 0 0 0 28.8-48l-105.6-180.8a30.4 30.4 0 0 0-54.4 0z" fill="#d4237a" p-id="1538"></path><path d="M398.4 736a64 64 0 0 0-12.8-80 190.4 190.4 0 0 1-65.6-148.8A195.2 195.2 0 0 1 504 320 192 192 0 0 1 704 512a195.2 195.2 0 0 1-64 144 62.4 62.4 0 0 0-14.4 80 65.6 65.6 0 0 0 97.6 16 321.6 321.6 0 0 0-193.6-560A320 320 0 0 0 192 512a315.2 315.2 0 0 0 108.8 240 64 64 0 0 0 97.6-16z" fill="#d4237a" p-id="1539"></path><path d="M460.8 67.2A446.4 446.4 0 0 0 272 889.6a32 32 0 0 0 44.8-11.2 33.6 33.6 0 0 0-11.2-43.2 382.4 382.4 0 0 1-176-356.8 384 384 0 1 1 588.8 358.4 30.4 30.4 0 0 0-11.2 41.6 32 32 0 0 0 44.8 11.2A448 448 0 0 0 460.8 67.2z" fill="#d4237a" p-id="1540"></path></svg>