<?xml version="1.0" encoding="iso-8859-1"?>
<!-- Generator: Adobe Illustrator 16.0.0, SVG Export Plug-In . SVG Version: 6.00 Build 0)  -->
<!DOCTYPE svg PUBLIC "-//W3C//DTD SVG 1.1//EN" "http://www.w3.org/Graphics/SVG/1.1/DTD/svg11.dtd">
<svg version="1.1" id="Capa_1" xmlns="http://www.w3.org/2000/svg" xmlns:xlink="http://www.w3.org/1999/xlink" x="0px" y="0px"
	 width="490.361px" height="490.361px" viewBox="0 0 490.361 490.361" style="enable-background:new 0 0 490.361 490.361;"
	 xml:space="preserve">
<g>
	<g>
		<path d="M186.27,163.535c9.724-4.985,17.673-10.384,24.002-15.47c1.36-1.093,2.665-2.187,3.919-3.276L153.497,96.86l-9.888,40.977
			L186.27,163.535z"/>
		<path d="M205.073,59.78l-7.362,22.059l-38.42,9.696l30.641,23.461l36.733-5.352L245.52,71.51l18.85,38.146l36.738,5.34
			l30.621-23.461l-38.425-9.696c0,0-26.14-81.839-39.628-81.839c-16.232,0-26.964,0-36.773,0c-14.797,0-10.722,17.613-32.782,17.613
			c-22.054,0-26.044,26.51-26.044,26.51s8.28,0,29.41,0C208.643,44.122,205.073,59.78,205.073,59.78z M215.82,13.178
			c2.636,0,4.758,2.121,4.758,4.744c0,2.618-2.122,4.753-4.758,4.753c-2.617,0-4.746-2.135-4.746-4.753
			C211.074,15.299,213.214,13.178,215.82,13.178z"/>
		<path d="M280.39,148.066c6.206,4.986,13.963,10.274,23.429,15.178l43.612-26.912l-9.86-39.484l-60.916,48.1
			C277.853,145.985,279.096,147.026,280.39,148.066z"/>
		<path d="M344.19,92.592l9.38,40.015h73.155c30.011,0,45.329-40.015,45.329-40.015H344.19z"/>
		<path d="M313.315,167.751c17.699,7.692,40.351,13.686,68.734,14.757c28.578-2.39,49.676-39.896,49.676-39.896h-79.719
			L313.315,167.751z"/>
		<path d="M136.791,132.607l9.379-40.015H18.307c0,0,15.318,40.015,45.332,40.015H136.791z"/>
		<path d="M177.167,167.83l-38.812-25.219h-79.72c0,0,21.137,37.577,49.755,39.903C136.784,181.471,159.45,175.504,177.167,167.83z"
			/>
		<path d="M245.179,119.004c0,0-33.419,72.767-145.842,72.767c0,262.206,81.521,212.524,145.842,298.59
			c64.326-86.064,145.846-36.385,145.846-298.59C278.603,191.771,245.179,119.004,245.179,119.004z M343.717,363.905
			c-13.618,28.854-31.536,41.063-54.223,56.521c-13.948,9.508-29.219,19.912-44.315,35.066
			c-15.095-15.154-30.365-25.562-44.314-35.066c-22.685-15.459-40.602-27.668-54.22-56.521
			c-14.938-31.647-22.909-80.933-24.26-150.263c63.936-5.509,102.069-33.427,122.795-55.829
			c20.725,22.402,58.854,50.32,122.797,55.829C366.627,282.973,358.654,332.256,343.717,363.905z"/>
		<path d="M192.318,281.152c3.43,0,6.639,0.48,9.626,1.438c2.987,0.961,5.976,2.141,8.964,3.541l6.694-17.205
			c-7.968-3.799-16.321-5.699-25.063-5.699c-8.004,0-14.966,1.707-20.885,5.117c-5.921,3.412-10.457,8.291-13.611,14.633
			c-3.153,6.346-4.73,13.703-4.73,22.076c0,13.389,3.256,23.623,9.767,30.705c6.509,7.082,15.868,10.621,28.077,10.621
			c8.52,0,16.154-1.492,22.904-4.48V323.42c-3.394,1.402-6.769,2.6-10.124,3.598c-3.357,0.994-6.824,1.492-10.401,1.492
			c-11.84,0-17.761-7.781-17.761-23.347c0-7.487,1.457-13.36,4.371-17.621C183.059,283.283,187.117,281.152,192.318,281.152z"/>
		<rect x="229.828" y="264.389" width="21.963" height="80.886"/>
		<path d="M288.639,330.115h26.278l3.983,15.158h23.9l-26.723-81.217h-29.156l-26.391,81.217h24.014L288.639,330.115z
			 M299.677,286.684c0.978-4.313,1.631-7.412,1.964-9.293c0.367,2.028,1.133,5.385,2.295,10.068s2.149,8.502,2.96,11.452
			l3.486,13.278h-17.207C296.531,299.501,298.699,290.999,299.677,286.684z"/>
	</g>
</g>
<g>
</g>
<g>
</g>
<g>
</g>
<g>
</g>
<g>
</g>
<g>
</g>
<g>
</g>
<g>
</g>
<g>
</g>
<g>
</g>
<g>
</g>
<g>
</g>
<g>
</g>
<g>
</g>
<g>
</g>
</svg>
