<?xml version="1.0" standalone="no"?><!DOCTYPE svg PUBLIC "-//W3C//DTD SVG 1.1//EN" "http://www.w3.org/Graphics/SVG/1.1/DTD/svg11.dtd"><svg t="1641691350176" class="icon" viewBox="0 0 1024 1024" version="1.1" xmlns="http://www.w3.org/2000/svg" p-id="4466" xmlns:xlink="http://www.w3.org/1999/xlink" width="200" height="200"><defs><style type="text/css"></style></defs><path d="M250.3 669.7H207c-8.8 0-16-7.2-16-16s7.2-16 16-16h43.3a16 16 0 1 1 0 32z m10.3 71.4H207c-8.8 0-16-7.2-16-16s7.2-16 16-16h53.5a16 16 0 1 1 0.1 32z m-11.3-420.3H206c-8.8 0-16-7.2-16-16s7.2-16 16-16h43.3a16 16 0 1 1 0 32z m11.3 71.4H207c-8.8 0-16-7.2-16-16s7.2-16 16-16h53.5a16 16 0 1 1 0.1 32z" fill="#1296db" p-id="4467"></path><path d="M764.7 882.9H300.8a56.2 56.2 0 0 1-56.1-56.1V203a56.2 56.2 0 0 1 56.1-56.1h463.9a36.1 36.1 0 0 1 36.1 36v663.9a36.1 36.1 0 0 1-36.1 36.1zM300.8 179a24 24 0 0 0-24 24v623.8a24 24 0 0 0 24 24h463.9a4 4 0 0 0 4-4V183a4 4 0 0 0-4-4H300.8z" fill="#1296db" p-id="4468"></path><path d="M599.8 669.5H445.7a16 16 0 1 1 0-32h154.1c8.8 0 16 7.2 16 16s-7.2 16-16 16z m36.9 71.3H408.8a16 16 0 1 1 0-32h227.9a16 16 0 1 1 0 32z" fill="#1296db" p-id="4469"></path><path d="M522.7 368.1m-92 0a92 92 0 1 0 184 0 92 92 0 1 0-184 0Z" fill="#1296db" p-id="4470"></path><path d="M522.7 476.1a108 108 0 1 1 0.1-216.1 108 108 0 0 1-0.1 216.1z m0-184a76 76 0 0 0 0 152 76 76 0 0 0 0-152z" fill="#1296db" p-id="4471"></path></svg>